<svg width="46" height="43" viewBox="0 0 46 43" fill="none" xmlns="http://www.w3.org/2000/svg">
<path d="M35.444 24.636C35.708 24.588 35.948 24.636 36.164 24.78C36.38 24.924 36.512 25.128 36.56 25.392C36.608 25.632 36.56 25.86 36.416 26.076C34.784 28.5 32.54 30.384 29.684 31.728C28.316 34.968 25.592 37.536 21.512 39.432C17.84 41.16 13.844 42.024 9.524 42.024C8.42 42.024 7.34 41.952 6.284 41.808C5.348 41.712 4.508 41.508 3.764 41.196C3.02 40.884 2.396 40.488 1.892 40.008C1.388 39.528 1.016 38.988 0.776 38.388C0.536 37.716 0.476 37.032 0.596 36.336C0.716 35.664 1.016 35.076 1.496 34.572C2.216 33.756 3.548 33.228 5.492 32.988C5.132 28.092 5.24 23.112 5.816 18.048C6.392 12.96 7.376 8.496 8.768 4.656C8.864 4.416 9.032 4.248 9.272 4.152C9.512 4.032 9.752 4.02 9.992 4.116C10.232 4.188 10.412 4.344 10.532 4.584C10.652 4.824 10.664 5.064 10.568 5.304C9.008 9.624 7.976 14.7 7.472 20.532C7.784 19.38 8.132 18.24 8.516 17.112C8.9 15.984 9.308 14.904 9.74 13.872C10.172 12.84 10.616 11.856 11.072 10.92C11.552 9.96 12.044 9.06 12.548 8.22C13.076 7.38 13.616 6.624 14.168 5.952C16.424 3.048 18.74 1.464 21.116 1.2C23.132 0.983999 24.656 1.416 25.688 2.496C26.864 3.72 27.26 5.64 26.876 8.256C26.636 9.768 26.036 11.364 25.076 13.044C24.116 14.724 22.88 16.344 21.368 17.904C20.528 18.792 19.664 19.572 18.776 20.244C23.336 20.268 26.648 21.336 28.712 23.448C30.2 25.008 30.776 26.928 30.44 29.208C32.24 28.104 33.704 26.712 34.832 25.032C35 24.816 35.204 24.684 35.444 24.636ZM20.684 37.704C23.444 36.432 25.52 34.812 26.912 32.844C25.376 33.324 23.612 33.696 21.62 33.96C19.628 34.248 18.008 34.416 16.76 34.464C15.512 34.512 13.82 34.56 11.684 34.608C9.812 34.632 8.456 34.668 7.616 34.716C7.664 35.652 7.748 36.54 7.868 37.38C7.916 37.644 7.856 37.872 7.688 38.064C7.544 38.28 7.34 38.412 7.076 38.46C6.908 38.484 6.74 38.46 6.572 38.388C6.428 38.34 6.296 38.244 6.176 38.1C6.08 37.98 6.02 37.836 5.996 37.668C5.852 36.756 5.732 35.832 5.636 34.896C4.22 35.088 3.296 35.412 2.864 35.868C2.408 36.372 2.312 36.984 2.576 37.704C3.032 38.928 4.34 39.672 6.5 39.936C8.9 40.2 11.336 40.14 13.808 39.756C16.28 39.372 18.572 38.688 20.684 37.704ZM28.496 29.136C28.832 27.384 28.436 25.932 27.308 24.78C26.228 23.676 24.584 22.92 22.376 22.512C20.192 22.08 17.672 22.044 14.816 22.404C14.504 22.476 14.204 22.512 13.916 22.512C13.748 22.512 13.592 22.476 13.448 22.404C13.328 22.332 13.22 22.236 13.124 22.116C13.028 21.972 12.98 21.816 12.98 21.648C12.956 21.384 13.016 21.156 13.16 20.964C13.328 20.772 13.532 20.664 13.772 20.64C14.012 20.592 14.24 20.556 14.456 20.532C14.888 20.412 15.38 20.196 15.932 19.884C16.508 19.548 17.156 19.092 17.876 18.516C18.596 17.94 19.304 17.292 20 16.572C20.696 15.876 21.32 15.156 21.872 14.412C22.448 13.668 22.94 12.936 23.348 12.216C23.78 11.472 24.128 10.74 24.392 10.02C24.68 9.3 24.872 8.616 24.968 7.968C25.28 5.976 25.064 4.596 24.32 3.828C23.84 3.324 23.096 3.072 22.088 3.072C21.848 3.072 21.596 3.084 21.332 3.108C19.484 3.3 17.588 4.632 15.644 7.104C14.804 8.208 13.976 9.504 13.16 10.992C12.368 12.48 11.636 14.1 10.964 15.852C10.316 17.604 9.74 19.428 9.236 21.324C8.18 25.38 7.628 29.208 7.58 32.808C8.396 32.76 9.764 32.724 11.684 32.7C13.508 32.676 14.936 32.64 15.968 32.592C17.024 32.544 18.368 32.436 20 32.268C21.656 32.1 23.144 31.86 24.464 31.548C25.808 31.212 27.056 30.804 28.208 30.324C28.328 29.94 28.424 29.544 28.496 29.136ZM44.7618 24.492C45.0018 24.468 45.2058 24.54 45.3738 24.708C45.5418 24.852 45.6258 25.044 45.6258 25.284C45.6498 25.5 45.5778 25.692 45.4098 25.86C42.9378 28.596 40.5138 30 38.1378 30.072C38.0658 30.072 37.9938 30.072 37.9218 30.072C36.5538 30.072 35.4858 29.64 34.7178 28.776C33.9738 27.936 33.7098 26.88 33.9258 25.608C34.0698 24.72 34.4298 23.868 35.0058 23.052C35.7018 22.044 36.4698 21.54 37.3098 21.54C38.0778 21.54 38.6298 21.876 38.9658 22.548C39.1818 23.004 39.2418 23.472 39.1458 23.952C39.0738 24.432 38.9058 24.852 38.6418 25.212C37.9698 26.148 36.9378 26.688 35.5458 26.832C35.6178 27.168 35.7498 27.456 35.9418 27.696C36.4218 28.224 37.1298 28.476 38.0658 28.452C39.9858 28.38 42.0258 27.144 44.1858 24.744C44.3538 24.576 44.5458 24.492 44.7618 24.492ZM37.3098 23.196C37.0938 23.196 36.8298 23.388 36.5178 23.772C36.2058 24.156 35.9538 24.612 35.7618 25.14C36.4818 24.972 36.9978 24.672 37.3098 24.24C37.4298 24.096 37.5018 23.928 37.5258 23.736C37.5498 23.52 37.5378 23.364 37.4898 23.268C37.4658 23.22 37.4058 23.196 37.3098 23.196Z" fill="#613D2B"/>
</svg>
