<svg width="28" height="13" viewBox="0 0 28 13" fill="none" xmlns="http://www.w3.org/2000/svg">
<path d="M16.2602 4.23798C16.5011 4.22515 16.7015 4.30655 16.8615 4.48218C17.0227 4.63383 17.1096 4.83008 17.1225 5.07093C17.1364 5.28782 17.0675 5.47682 16.9159 5.63795C16.8406 5.70653 16.7272 5.82138 16.5755 5.98251C16.1696 6.44415 15.8287 6.8007 15.5527 7.05215C15.3007 7.30472 14.962 7.61331 14.5366 7.97795C14.1123 8.3186 13.68 8.57479 13.2395 8.74652C12.8242 8.89538 12.4007 8.95978 11.9692 8.93971C11.7534 8.92968 11.5388 8.89567 11.3252 8.83769C11.0169 8.75127 10.7462 8.63056 10.5132 8.47557C10.3041 8.32169 10.131 8.16948 9.99381 8.01895C9.88174 7.84556 9.77135 7.6362 9.66263 7.39089C9.57788 7.14669 9.51432 6.96354 9.47195 6.84144C9.43069 6.69536 9.39166 6.50134 9.35486 6.25937C9.25618 5.79829 9.15136 5.46906 9.04041 5.27169C8.95343 5.07544 8.78031 4.92323 8.52106 4.81507C8.16702 4.67848 7.70594 4.77716 7.13781 5.11113C6.59366 5.44622 6.1454 5.78576 5.79304 6.12976C5.46465 6.47488 5.04678 6.93596 4.53943 7.51302C4.13466 7.95068 3.8439 8.26151 3.66716 8.4455C3.49043 8.62949 3.27828 8.79982 3.03074 8.95649C2.80828 9.0903 2.58917 9.15218 2.3734 9.14215C2.34943 9.14104 2.33744 9.14048 2.33744 9.14048C2.02578 9.12598 1.77907 9.00639 1.59731 8.78171C0.890907 7.956 0.931319 6.3121 1.71855 3.85001C1.8005 3.63759 1.93961 3.48789 2.13586 3.40092C2.33323 3.28997 2.53812 3.27547 2.75055 3.35743C2.98806 3.41652 3.1503 3.5442 3.23728 3.74045C3.34823 3.93782 3.36217 4.1547 3.2791 4.3911C2.91503 5.50338 2.72993 6.38373 2.7238 7.03215C2.85036 6.89388 3.0402 6.68648 3.29332 6.40994C4.33089 5.28092 5.14852 4.49005 5.74619 4.03732C6.9895 3.13411 8.11823 2.88628 9.13239 3.29383C9.55723 3.45774 9.9057 3.71421 10.1778 4.06323C10.4499 4.41224 10.6283 4.70885 10.713 4.95305C10.7978 5.19725 10.8786 5.52536 10.9556 5.93738C11.0542 6.39846 11.1476 6.71514 11.2357 6.88742C11.3478 7.06082 11.5226 7.17706 11.7601 7.23616C12.1152 7.34878 12.5278 7.25985 12.9978 6.96937C13.4918 6.68001 13.8773 6.39761 14.1544 6.12219C14.4566 5.8239 14.8603 5.41021 15.3654 4.8811C15.5181 4.696 15.6322 4.56916 15.7074 4.50058C15.8591 4.33945 16.0433 4.25192 16.2602 4.23798ZM27.6388 5.48793C27.6344 5.58383 27.6174 5.69115 27.5878 5.80991C27.5594 5.90469 27.507 5.99836 27.4306 6.09091C27.3793 6.1606 27.304 6.22918 27.2048 6.29664C27.1067 6.34013 27.0091 6.37163 26.9121 6.39114C25.4396 6.5389 23.5925 6.99358 21.3707 7.75519C21.5034 8.00162 21.599 8.27035 21.6576 8.56139C21.8059 9.50529 21.2012 10.3661 19.8436 11.1439C18.931 11.6541 17.9045 12.0268 16.7644 12.2621C16.2074 12.3563 15.7131 12.3934 15.2816 12.3733C14.7062 12.3465 14.2683 12.206 13.9678 11.9518C13.505 11.5699 13.372 11.0712 13.5688 10.4557C13.7907 9.81728 14.4704 9.15214 15.6077 8.46023C16.2249 8.10451 16.9871 7.73152 17.8942 7.34124C17.1872 7.04407 16.6715 6.76782 16.347 6.51247C15.6523 5.95159 15.4204 5.25606 15.6512 4.42589C15.8569 3.61858 16.6757 2.80373 18.1074 1.98136C18.3048 1.87041 18.5102 1.84392 18.7238 1.9019C18.9613 1.961 19.1355 2.08923 19.2465 2.2866C19.3574 2.48397 19.3839 2.68942 19.3259 2.90296C19.2679 3.11649 19.1397 3.29073 18.9412 3.42565C17.9053 4.00215 17.3431 4.46853 17.2544 4.8248C17.226 4.91958 17.2221 5.00349 17.2427 5.07653C17.2644 5.12559 17.3918 5.22762 17.6249 5.38261C17.8591 5.51363 18.2234 5.68675 18.718 5.90195C19.3084 6.12162 19.7441 6.31006 20.0251 6.46729C22.6394 5.53173 24.8642 4.96247 26.6996 4.75951C26.9416 4.72272 27.1432 4.78014 27.3043 4.93179C27.4905 5.06058 27.602 5.24596 27.6388 5.48793ZM19.4188 9.43032C19.8408 9.13761 20.0427 8.93076 20.0243 8.80978C20.0081 8.64084 19.9195 8.48055 19.7583 8.3289C19.7332 8.35176 19.7087 8.36263 19.6847 8.36152C18.4604 8.85718 17.4906 9.30461 16.7752 9.70381C16.0839 10.1041 15.5997 10.442 15.3226 10.7174C15.826 10.7408 16.4915 10.6396 17.3188 10.4138C18.1462 10.188 18.8462 9.86018 19.4188 9.43032Z" fill="#613D2B"/>
</svg>
