<svg width="22" height="21" viewBox="0 0 22 21" fill="none" xmlns="http://www.w3.org/2000/svg">
<path d="M20.3159 1.61396C20.3103 1.60863 20.3045 1.60358 20.2989 1.59825C20.2984 1.59772 20.2978 1.59719 20.2972 1.59665C17.4589 -1.08741 12.2641 -0.278134 8.56224 3.25549C8.00979 3.78283 7.51127 4.35135 7.07466 4.94903C4.86477 4.63633 2.9197 5.16162 1.5838 6.43683C1.57856 6.44184 1.57362 6.44705 1.56842 6.45209C1.56739 6.45312 1.56631 6.4541 1.56533 6.45517C-1.11176 9.0394 -0.262612 14.2441 3.40663 17.7465C7.12188 21.2929 12.5815 22.0382 15.2548 19.4865C15.2581 19.4834 15.2612 19.4801 15.2645 19.4769C15.2662 19.4752 15.268 19.4736 15.2696 19.4718C16.5946 18.1971 17.1398 16.3466 16.8135 14.2452C17.4396 13.8284 18.0352 13.3526 18.5877 12.8252C22.3088 9.27319 23.1415 4.31111 20.3159 1.61396ZM9.47365 4.12548C12.3401 1.38932 16.1126 0.523354 18.5153 1.83618L18.4862 1.84566C17.0555 2.31061 15.789 3.11329 14.8236 4.16703C13.9057 5.16887 13.2596 6.3991 12.9458 7.7356C11.5872 6.56165 10.0347 5.70421 8.44433 5.24414C8.75826 4.85404 9.10249 4.47973 9.47365 4.12548ZM4.31799 16.8765C1.6159 14.2972 0.544944 10.5445 1.82748 8.18603C2.81778 10.9598 5.30336 13.0365 8.31483 13.6063C10.9086 14.097 13.0328 15.8914 13.8583 18.2893L14.0555 18.8621C11.7787 20.6058 7.35189 19.7726 4.31799 16.8765ZM15.0261 17.7496C14.0183 15.0088 11.5583 12.9656 8.56533 12.3994C6.00306 11.9146 3.88843 10.1472 3.04659 7.78691L2.78577 7.0556C5.15189 5.19816 9.44009 6.10633 12.5205 9.04675C14.0115 10.47 15.1719 12.3161 15.517 14.2931C15.748 15.6158 15.5736 16.8072 15.0261 17.7496ZM16.5043 12.9377C16.0384 11.4704 15.1834 10.0369 14.0161 8.77157C14.0727 8.57601 14.1227 8.37819 14.164 8.17984C14.6776 5.70606 16.4044 3.82184 18.9015 3.01034L19.6683 2.76117C21.608 4.99665 20.7814 8.99121 17.6762 11.9553C17.3051 12.3095 16.9129 12.6381 16.5043 12.9377Z" fill="#613D2B"/>
</svg>
