<svg width="79" height="45" viewBox="0 0 79 45" fill="none" xmlns="http://www.w3.org/2000/svg">
<path d="M35.288 2.16C36.08 3.36 36.608 5.064 36.872 7.272C37.16 9.456 37.172 11.952 36.908 14.76C36.644 17.448 36.164 20.052 35.468 22.572C34.796 25.092 33.98 27.252 33.02 29.052C31.196 32.388 29.144 34.056 26.864 34.056C25.664 34.056 24.644 33.48 23.804 32.328C23.156 31.44 22.592 30.192 22.112 28.584C21.56 26.664 21.008 23.448 20.456 18.936C20.168 16.824 19.952 15.372 19.808 14.58C19.712 13.956 19.604 13.464 19.484 13.104C19.364 13.248 19.256 13.44 19.16 13.68C18.752 14.448 18.044 16.596 17.036 20.124C15.428 25.788 14.06 29.832 12.932 32.256C11.996 34.272 11.024 35.796 10.016 36.828C8.888 38.004 7.688 38.592 6.416 38.592C6.224 38.592 6.032 38.58 5.84 38.556C4.568 38.364 3.512 37.536 2.672 36.072C1.712 34.464 1.028 32.052 0.62 28.836C0.26 26.028 0.116 22.836 0.188 19.26C0.284 15.924 0.548 12.744 0.98 9.72C1.436 6.696 1.976 4.392 2.6 2.808C2.696 2.568 2.864 2.4 3.104 2.304C3.344 2.184 3.584 2.172 3.824 2.268C4.088 2.364 4.268 2.532 4.364 2.772C4.46 3.012 4.46 3.264 4.364 3.528C3.764 5.016 3.26 7.212 2.852 10.116C2.444 13.02 2.192 16.092 2.096 19.332C2.024 23.004 2.18 26.208 2.564 28.944C2.948 31.704 3.536 33.768 4.328 35.136C4.856 36.048 5.444 36.552 6.092 36.648C7.796 36.888 9.5 35.16 11.204 31.464C12.284 29.136 13.628 25.176 15.236 19.584C16.268 15.96 17 13.704 17.432 12.816C18.176 11.328 18.968 10.656 19.808 10.8C20.288 10.896 20.66 11.184 20.924 11.664C21.188 12.144 21.416 12.828 21.608 13.716C21.776 14.604 22.016 16.272 22.328 18.72C22.88 23.112 23.42 26.22 23.948 28.044C24.74 30.804 25.712 32.184 26.864 32.184C28.4 32.184 29.888 30.84 31.328 28.152C32.576 25.8 33.548 22.92 34.244 19.512C34.964 16.104 35.276 12.876 35.18 9.828C35.108 6.78 34.616 4.584 33.704 3.24C33.152 2.4 32.48 2.016 31.688 2.088C31.496 2.112 31.328 2.088 31.184 2.016C31.04 1.944 30.908 1.836 30.788 1.692C30.692 1.548 30.644 1.392 30.644 1.224C30.62 0.959998 30.692 0.731998 30.86 0.539999C31.028 0.323999 31.244 0.203999 31.508 0.179998C33.068 0.0599978 34.328 0.719998 35.288 2.16ZM51.128 21.744C51.344 21.624 51.56 21.6 51.776 21.672C51.992 21.72 52.16 21.852 52.28 22.068C52.4 22.26 52.424 22.464 52.352 22.68C52.136 23.544 51.752 24.3 51.2 24.948C50.672 25.596 50.084 26.076 49.436 26.388C48.812 26.7 48.176 26.856 47.528 26.856C47.36 26.856 47.192 26.844 47.024 26.82C45.824 26.628 45.008 25.932 44.576 24.732C44.456 24.852 44.336 24.972 44.216 25.092C42.848 26.484 41.564 27.18 40.364 27.18C40.34 27.18 40.328 27.18 40.328 27.18C39.632 27.18 39.032 26.904 38.528 26.352C38.024 25.776 37.82 25.116 37.916 24.372C38.036 23.388 38.468 22.524 39.212 21.78C39.956 21.036 40.76 20.496 41.624 20.16C42.488 19.824 43.328 19.644 44.144 19.62C44.792 19.62 45.344 19.788 45.8 20.124C46.28 20.436 46.58 20.868 46.7 21.42C46.748 21.66 46.7 21.876 46.556 22.068C46.436 22.26 46.268 22.38 46.052 22.428C46.004 22.428 45.956 22.428 45.908 22.428C45.932 22.524 45.944 22.632 45.944 22.752C45.872 24.216 46.316 25.032 47.276 25.2C47.9 25.296 48.56 25.092 49.256 24.588C50 24.012 50.504 23.232 50.768 22.248C50.816 22.032 50.936 21.864 51.128 21.744ZM44.432 22.248C44.6 22.008 44.828 21.888 45.116 21.888C45.092 21.84 45.08 21.804 45.08 21.78C45.008 21.444 44.732 21.276 44.252 21.276C44.228 21.276 44.204 21.276 44.18 21.276C43.196 21.3 42.212 21.624 41.228 22.248C40.244 22.848 39.68 23.628 39.536 24.588C39.512 24.828 39.584 25.044 39.752 25.236C39.944 25.452 40.136 25.548 40.328 25.524C41 25.524 41.732 25.152 42.524 24.408C43.34 23.64 43.976 22.92 44.432 22.248ZM67.6121 21.708C67.8281 21.78 67.9721 21.924 68.0441 22.14C68.1401 22.356 68.1521 22.572 68.0801 22.788C68.0081 23.004 67.8641 23.148 67.6481 23.22C67.5041 23.292 67.2881 23.388 67.0001 23.508C64.3601 24.66 62.3921 25.716 61.0961 26.676C61.0961 28.212 61.0121 29.808 60.8441 31.464C60.7241 32.592 60.5561 33.72 60.3401 34.848C60.1481 35.976 59.7761 37.332 59.2241 38.916C58.6961 40.524 58.0721 41.784 57.3521 42.696C56.3681 43.944 55.2521 44.568 54.0041 44.568C53.6441 44.568 53.2721 44.508 52.8881 44.388C51.7601 44.052 50.9921 43.248 50.5841 41.976C50.1761 40.704 50.2121 39.192 50.6921 37.44C51.2201 35.616 52.1561 33.828 53.5001 32.076C55.5641 29.412 57.5321 27.336 59.4041 25.848C59.3321 24.12 59.1401 22.968 58.8281 22.392C58.7801 22.344 58.7441 22.296 58.7201 22.248C58.5761 22.32 58.3601 22.476 58.0721 22.716C57.8081 22.98 57.3881 23.46 56.8121 24.156C56.2601 24.804 55.8281 25.296 55.5161 25.632C55.2041 25.968 54.7841 26.304 54.2561 26.64C53.7521 26.976 53.2721 27.144 52.8161 27.144C51.9761 27.168 51.3521 26.868 50.9441 26.244C50.5841 25.668 50.5001 24.864 50.6921 23.832C50.8361 23.016 51.1361 22.152 51.5921 21.24C51.6881 21.048 51.8441 20.916 52.0601 20.844C52.2761 20.772 52.4801 20.784 52.6721 20.88C52.8881 20.976 53.0321 21.132 53.1041 21.348C53.1761 21.564 53.1641 21.78 53.0681 21.996C52.6841 22.764 52.4321 23.484 52.3121 24.156C52.1921 24.804 52.2041 25.212 52.3481 25.38C52.4201 25.476 52.5641 25.524 52.7801 25.524C53.2601 25.5 54.1841 24.684 55.5521 23.076C56.0561 22.476 56.4401 22.032 56.7041 21.744C56.9921 21.456 57.3401 21.192 57.7481 20.952C58.1561 20.688 58.5401 20.568 58.9001 20.592C59.4521 20.64 59.9081 20.976 60.2681 21.6C60.6281 22.224 60.8681 23.268 60.9881 24.732C62.1641 23.94 63.9521 23.028 66.3521 21.996C66.6641 21.876 66.8681 21.78 66.9641 21.708C67.1801 21.636 67.3961 21.636 67.6121 21.708ZM59.1881 31.32C59.3321 30.168 59.4161 29.064 59.4401 28.008C57.9761 29.28 56.4401 30.972 54.8321 33.084C53.7761 34.428 52.9721 35.88 52.4201 37.44C51.8681 39 51.7721 40.344 52.1321 41.472C52.3721 42.192 52.7921 42.636 53.3921 42.804C54.3521 43.092 55.2401 42.72 56.0561 41.688C56.8001 40.752 57.4481 39.36 58.0001 37.512C58.5521 35.688 58.9481 33.624 59.1881 31.32ZM78.7172 22.32C78.7172 22.416 78.7052 22.524 78.6812 22.644C78.6572 22.74 78.6092 22.836 78.5372 22.932C78.4892 23.004 78.4172 23.076 78.3212 23.148C78.2252 23.196 78.1292 23.232 78.0332 23.256C76.5692 23.472 74.7452 24.012 72.5612 24.876C72.7052 25.116 72.8132 25.38 72.8852 25.668C73.0772 26.604 72.5132 27.492 71.1932 28.332C70.3052 28.884 69.2972 29.304 68.1692 29.592C67.6172 29.712 67.1252 29.772 66.6932 29.772C66.1172 29.772 65.6732 29.652 65.3612 29.412C64.8812 29.052 64.7252 28.56 64.8932 27.936C65.0852 27.288 65.7332 26.592 66.8372 25.848C67.4372 25.464 68.1812 25.056 69.0692 24.624C68.3492 24.36 67.8212 24.108 67.4852 23.868C66.7652 23.34 66.5012 22.656 66.6932 21.816C66.8612 21 67.6412 20.148 69.0332 19.26C69.2252 19.14 69.4292 19.104 69.6452 19.152C69.8852 19.2 70.0652 19.32 70.1852 19.512C70.3052 19.704 70.3412 19.908 70.2932 20.124C70.2452 20.34 70.1252 20.52 69.9332 20.664C68.9252 21.288 68.3852 21.78 68.3132 22.14C68.2892 22.236 68.2892 22.32 68.3132 22.392C68.3372 22.44 68.4692 22.536 68.7092 22.68C68.9492 22.8 69.3212 22.956 69.8252 23.148C70.4252 23.34 70.8692 23.508 71.1572 23.652C73.7252 22.596 75.9212 21.924 77.7452 21.636C77.9852 21.588 78.1892 21.636 78.3572 21.78C78.5492 21.9 78.6692 22.08 78.7172 22.32ZM70.6892 26.64C71.0972 26.328 71.2892 26.112 71.2652 25.992C71.2412 25.824 71.1452 25.668 70.9772 25.524C70.9532 25.548 70.9292 25.56 70.9052 25.56C69.7052 26.112 68.7572 26.604 68.0612 27.036C67.3892 27.468 66.9212 27.828 66.6572 28.116C67.1612 28.116 67.8212 27.984 68.6372 27.72C69.4532 27.456 70.1372 27.096 70.6892 26.64Z" fill="#613D2B"/>
</svg>
